<?xml version="1.0" encoding="UTF-8"?>
<svg xmlns="http://www.w3.org/2000/svg" version="1.1" viewBox="0 0 1000 1500">
  <defs>
    <style>
      .cls-1 {
        fill: #231f20;
      }

      .cls-2 {
        fill: #febd26;
      }

      .cls-3 {
        fill: #f79039;
      }
    </style>
  </defs>
  <!-- Generator: Adobe Illustrator 28.6.0, SVG Export Plug-In . SVG Version: 1.2.0 Build 709)  -->
  <g>
    <g id="Utama">
      <g>
        <g>
          <path class="cls-1" d="M87.98,1028.35c-11.15,0-21.18-1.94-30.11-5.82-8.93-3.89-16.26-9.44-22.02-16.68-5.75-7.23-9.4-15.82-10.95-25.77l26.46-4.02c2.26,9.04,6.89,16.03,13.91,20.97,7.02,4.94,15.13,7.41,24.3,7.41,5.43,0,10.55-.85,15.35-2.54,4.8-1.69,8.7-4.16,11.69-7.41,3-3.24,4.5-7.23,4.5-11.96,0-2.12-.35-4.07-1.05-5.88-.71-1.8-1.75-3.4-3.13-4.82-1.37-1.41-3.14-2.7-5.29-3.86-2.16-1.16-4.64-2.17-7.47-3.01l-39.37-11.64c-3.39-.99-7.04-2.31-10.96-3.97-3.92-1.66-7.62-3.95-11.11-6.88-3.49-2.92-6.35-6.67-8.57-11.22-2.23-4.55-3.34-10.18-3.34-16.88,0-9.81,2.49-18.05,7.47-24.71,4.98-6.67,11.68-11.66,20.11-14.98,8.43-3.32,17.8-4.94,28.11-4.87,10.44.08,19.75,1.86,27.94,5.35,8.19,3.49,15.03,8.56,20.53,15.19,5.51,6.63,9.38,14.65,11.65,24.03l-27.42,4.76c-1.13-5.36-3.3-9.94-6.51-13.71-3.21-3.77-7.13-6.65-11.75-8.63-4.62-1.98-9.54-3.04-14.76-3.17-5.08-.08-9.79.68-14.13,2.27-4.34,1.59-7.83,3.86-10.48,6.83-2.64,2.96-3.97,6.42-3.97,10.37,0,3.74,1.13,6.79,3.39,9.16,2.26,2.36,5.07,4.23,8.41,5.61,3.36,1.37,6.76,2.52,10.22,3.44l27.31,7.62c3.73.99,7.94,2.33,12.6,4.02,4.66,1.7,9.13,4.06,13.44,7.1,4.3,3.03,7.85,7.02,10.63,11.96,2.79,4.94,4.18,11.22,4.18,18.84s-1.64,14.84-4.92,20.8c-3.28,5.97-7.71,10.92-13.29,14.88-5.57,3.95-11.94,6.92-19.1,8.89-7.17,1.98-14.66,2.96-22.5,2.96Z"/>
          <path class="cls-1" d="M196.16,1025.18v-152.43h98.44v23.93h-72.93v37.58h60.23v23.93h-60.23v43.08h72.93v23.92h-98.44Z"/>
          <path class="cls-1" d="M345.41,1025.18v-152.43h25.83l70.7,107.44v-107.44h25.83v152.43h-25.83l-70.7-107.44v107.44h-25.83Z"/>
          <path class="cls-1" d="M579.23,1028.35c-11.16,0-21.19-1.94-30.11-5.82-8.93-3.89-16.27-9.44-22.02-16.68-5.76-7.23-9.41-15.82-10.96-25.77l26.46-4.02c2.26,9.04,6.9,16.03,13.92,20.97,7.02,4.94,15.12,7.41,24.29,7.41,5.44,0,10.55-.85,15.35-2.54,4.79-1.69,8.7-4.16,11.69-7.41,3-3.24,4.5-7.23,4.5-11.96,0-2.12-.36-4.07-1.06-5.88-.7-1.8-1.74-3.4-3.12-4.82-1.38-1.41-3.14-2.7-5.29-3.86-2.15-1.16-4.64-2.17-7.46-3.01l-39.38-11.64c-3.39-.99-7.04-2.31-10.95-3.97-3.92-1.66-7.63-3.95-11.12-6.88-3.49-2.92-6.35-6.67-8.57-11.22-2.22-4.55-3.33-10.18-3.33-16.88,0-9.81,2.48-18.05,7.46-24.71,4.98-6.67,11.68-11.66,20.12-14.98,8.43-3.32,17.8-4.94,28.1-4.87,10.44.08,19.76,1.86,27.94,5.35,8.19,3.49,15.03,8.56,20.54,15.19,5.5,6.63,9.38,14.65,11.64,24.03l-27.42,4.76c-1.13-5.36-3.29-9.94-6.51-13.71-3.21-3.77-7.13-6.65-11.75-8.63-4.63-1.98-9.55-3.04-14.77-3.17-5.08-.08-9.79.68-14.13,2.27-4.34,1.59-7.83,3.86-10.48,6.83-2.65,2.96-3.97,6.42-3.97,10.37,0,3.74,1.13,6.79,3.39,9.16,2.26,2.36,5.06,4.23,8.41,5.61,3.35,1.37,6.76,2.52,10.22,3.44l27.3,7.62c3.74.99,7.94,2.33,12.6,4.02,4.66,1.7,9.14,4.06,13.44,7.1,4.3,3.03,7.85,7.02,10.64,11.96,2.79,4.94,4.18,11.22,4.18,18.84s-1.64,14.84-4.92,20.8c-3.28,5.97-7.71,10.92-13.29,14.88-5.57,3.95-11.94,6.92-19.11,8.89-7.16,1.98-14.66,2.96-22.49,2.96Z"/>
          <path class="cls-1" d="M748.8,1028.35c-12.14,0-22.81-2.47-32.02-7.41-9.2-4.94-16.41-11.89-21.59-20.85-5.18-8.96-7.78-19.48-7.78-31.55v-95.59l25.83-.21v95.16c0,5.72.97,10.84,2.92,15.35,1.94,4.51,4.57,8.35,7.88,11.48,3.32,3.14,7.13,5.52,11.43,7.14,4.3,1.63,8.75,2.44,13.34,2.44s9.23-.83,13.5-2.49c4.26-1.65,8.06-4.05,11.38-7.2,3.32-3.14,5.93-6.97,7.83-11.48,1.91-4.51,2.86-9.6,2.86-15.25v-95.16h25.83v95.8c0,12.07-2.6,22.59-7.78,31.55-5.19,8.96-12.39,15.91-21.59,20.85-9.21,4.94-19.89,7.41-32.02,7.41Z"/>
          <path class="cls-1" d="M915.3,1028.35c-11.16,0-21.19-1.94-30.11-5.82-8.93-3.89-16.27-9.44-22.02-16.68-5.76-7.23-9.41-15.82-10.96-25.77l26.46-4.02c2.26,9.04,6.9,16.03,13.92,20.97,7.02,4.94,15.12,7.41,24.29,7.41,5.44,0,10.55-.85,15.35-2.54,4.79-1.69,8.7-4.16,11.69-7.41,3-3.24,4.5-7.23,4.5-11.96,0-2.12-.36-4.07-1.06-5.88-.7-1.8-1.74-3.4-3.12-4.82-1.38-1.41-3.14-2.7-5.29-3.86-2.15-1.16-4.64-2.17-7.46-3.01l-39.38-11.64c-3.39-.99-7.04-2.31-10.95-3.97-3.92-1.66-7.63-3.95-11.12-6.88-3.49-2.92-6.35-6.67-8.57-11.22-2.22-4.55-3.33-10.18-3.33-16.88,0-9.81,2.48-18.05,7.46-24.71,4.98-6.67,11.68-11.66,20.12-14.98,8.43-3.32,17.8-4.94,28.1-4.87,10.44.08,19.76,1.86,27.94,5.35,8.19,3.49,15.03,8.56,20.54,15.19,5.5,6.63,9.38,14.65,11.64,24.03l-27.42,4.76c-1.13-5.36-3.29-9.94-6.51-13.71-3.21-3.77-7.13-6.65-11.75-8.63-4.63-1.98-9.55-3.04-14.77-3.17-5.08-.08-9.79.68-14.13,2.27-4.34,1.59-7.83,3.86-10.48,6.83-2.65,2.96-3.97,6.42-3.97,10.37,0,3.74,1.13,6.79,3.39,9.16,2.26,2.36,5.06,4.23,8.41,5.61,3.35,1.37,6.76,2.52,10.22,3.44l27.3,7.62c3.74.99,7.94,2.33,12.6,4.02,4.66,1.7,9.14,4.06,13.44,7.1,4.3,3.03,7.85,7.02,10.64,11.96,2.79,4.94,4.18,11.22,4.18,18.84s-1.64,14.84-4.92,20.8c-3.28,5.97-7.71,10.92-13.29,14.88-5.57,3.95-11.94,6.92-19.11,8.89-7.16,1.98-14.66,2.96-22.49,2.96Z"/>
          <path class="cls-1" d="M31.56,1238.07v-152.43h98.44v23.93H57.07v37.58h60.23v23.93h-60.23v43.08h72.93v23.92H31.56Z"/>
          <path class="cls-1" d="M155.4,1238.07v-152.43h25.51v70.71l60.87-70.71h31.33l-65.52,74.73,69.97,77.7h-32.39l-64.25-71.13v71.13h-25.51Z"/>
          <path class="cls-1" d="M348.69,1241.25c-15.25,0-28.3-3.33-39.17-10-10.87-6.67-19.22-15.97-25.03-27.9-5.82-11.92-8.73-25.76-8.73-41.49s2.91-29.57,8.73-41.5c5.82-11.92,14.16-21.22,25.03-27.89,10.87-6.67,23.92-10.01,39.17-10.01s28.31,3.33,39.22,10.01c10.9,6.67,19.26,15.97,25.09,27.89,5.82,11.93,8.73,25.76,8.73,41.5s-2.92,29.57-8.73,41.49c-5.82,11.93-14.19,21.22-25.09,27.9-10.91,6.67-23.98,10-39.22,10ZM348.69,1217.22c10.23.07,18.75-2.19,25.56-6.78,6.81-4.58,11.92-11.04,15.35-19.37,3.42-8.32,5.14-18.06,5.14-29.21s-1.71-20.84-5.14-29.05c-3.42-8.23-8.54-14.63-15.35-19.22-6.81-4.59-15.33-6.95-25.56-7.09-10.23-.08-18.74,2.19-25.51,6.77-6.78,4.59-11.88,11.04-15.3,19.37-3.42,8.32-5.14,18.06-5.14,29.21s1.7,20.84,5.08,29.05c3.39,8.22,8.49,14.63,15.3,19.22,6.81,4.58,15.33,6.95,25.56,7.09Z"/>
          <path class="cls-1" d="M442.89,1238.07v-152.43h25.83l70.7,107.44v-107.44h25.83v152.43h-25.83l-70.7-107.44v107.44h-25.83Z"/>
          <path class="cls-1" d="M659.36,1241.25c-15.24,0-28.3-3.33-39.17-10-10.86-6.67-19.21-15.97-25.03-27.9-5.82-11.92-8.73-25.76-8.73-41.49s2.92-29.57,8.73-41.5c5.82-11.92,14.17-21.22,25.03-27.89,10.87-6.67,23.93-10.01,39.17-10.01s28.32,3.33,39.22,10.01c10.91,6.67,19.27,15.97,25.09,27.89,5.82,11.93,8.73,25.76,8.73,41.5s-2.91,29.57-8.73,41.49c-5.82,11.93-14.18,21.22-25.09,27.9-10.9,6.67-23.97,10-39.22,10ZM659.36,1217.22c10.23.07,18.75-2.19,25.56-6.78,6.81-4.58,11.93-11.04,15.35-19.37,3.42-8.32,5.14-18.06,5.14-29.21s-1.71-20.84-5.14-29.05c-3.42-8.23-8.54-14.63-15.35-19.22-6.81-4.59-15.33-6.95-25.56-7.09-10.23-.08-18.73,2.19-25.51,6.77-6.77,4.59-11.87,11.04-15.29,19.37-3.42,8.32-5.14,18.06-5.14,29.21s1.7,20.84,5.08,29.05c3.39,8.22,8.48,14.63,15.29,19.22,6.81,4.58,15.33,6.95,25.56,7.09Z"/>
          <path class="cls-1" d="M753.56,1238.07v-152.43h22.97l52.72,107.97,52.71-107.97h22.97v152.43h-23.81v-97.7l-46.79,97.7h-10.16l-46.68-97.7v97.7h-23.93Z"/>
          <path class="cls-1" d="M936.68,1238.07v-152.43h25.51v152.43h-25.51Z"/>
          <path class="cls-3" d="M27.32,1450.75v-22.23l65.21-58.11c5.08-4.51,8.61-8.79,10.59-12.81,1.97-4.02,2.96-7.91,2.96-11.65,0-5.07-1.1-9.61-3.28-13.6-2.19-3.99-5.2-7.15-9.05-9.48-3.85-2.33-8.28-3.49-13.29-3.49-5.29,0-9.97,1.21-14.03,3.65-4.06,2.43-7.22,5.66-9.48,9.69-2.26,4.02-3.32,8.36-3.17,13.01h-26.25c0-10.16,2.28-19.01,6.83-26.56,4.55-7.55,10.83-13.41,18.84-17.57,8.01-4.17,17.27-6.25,27.79-6.25,9.74,0,18.49,2.17,26.25,6.51,7.76,4.34,13.86,10.34,18.31,18,4.45,7.66,6.67,16.46,6.67,26.4,0,7.27-.99,13.38-2.96,18.31-1.98,4.94-4.92,9.49-8.84,13.66-3.92,4.17-8.77,8.79-14.56,13.87l-46.26,40.96-2.33-6.35h74.95v24.03H27.32Z"/>
          <path class="cls-3" d="M254.8,1454.13c-10.79,0-20.32-2.31-28.58-6.93-8.26-4.62-14.7-11.07-19.32-19.32-4.62-8.26-6.93-17.78-6.93-28.58v-49.12c0-10.79,2.31-20.32,6.93-28.58,4.62-8.26,11.07-14.69,19.32-19.31,8.26-4.62,17.78-6.94,28.58-6.94s20.31,2.32,28.52,6.94c8.23,4.62,14.66,11.06,19.32,19.31,4.66,8.26,6.98,17.78,6.98,28.58v49.12c0,10.8-2.33,20.32-6.98,28.58-4.66,8.26-11.1,14.7-19.32,19.32-8.22,4.62-17.72,6.93-28.52,6.93ZM254.8,1429.9c5.36,0,10.23-1.29,14.61-3.86,4.37-2.58,7.83-6.04,10.37-10.38,2.54-4.34,3.81-9.19,3.81-14.55v-52.82c0-5.43-1.26-10.32-3.81-14.66-2.54-4.34-6-7.79-10.37-10.37-4.38-2.58-9.25-3.86-14.61-3.86s-10.23,1.29-14.61,3.86c-4.37,2.58-7.83,6.03-10.37,10.37-2.54,4.34-3.81,9.23-3.81,14.66v52.82c0,5.36,1.26,10.21,3.81,14.55,2.54,4.34,6,7.8,10.37,10.38,4.38,2.58,9.25,3.86,14.61,3.86Z"/>
          <path class="cls-3" d="M377.37,1450.75v-22.23l65.21-58.11c5.08-4.51,8.61-8.79,10.59-12.81,1.97-4.02,2.96-7.91,2.96-11.65,0-5.07-1.1-9.61-3.28-13.6-2.19-3.99-5.2-7.15-9.05-9.48-3.85-2.33-8.28-3.49-13.29-3.49-5.29,0-9.97,1.21-14.03,3.65-4.06,2.43-7.22,5.66-9.48,9.69-2.26,4.02-3.32,8.36-3.17,13.01h-26.25c0-10.16,2.28-19.01,6.83-26.56,4.55-7.55,10.83-13.41,18.84-17.57,8.01-4.17,17.27-6.25,27.79-6.25,9.74,0,18.49,2.17,26.25,6.51,7.76,4.34,13.86,10.34,18.31,18,4.45,7.66,6.67,16.46,6.67,26.4,0,7.27-.99,13.38-2.96,18.31-1.98,4.94-4.92,9.49-8.84,13.66-3.92,4.17-8.77,8.79-14.56,13.87l-46.26,40.96-2.33-6.35h74.95v24.03h-104.9Z"/>
          <path class="cls-3" d="M602.73,1454.13c-9.95,0-18.9-2.35-26.84-7.04-7.94-4.7-14.24-11.2-18.9-19.53-4.66-8.32-6.98-17.88-6.98-28.68v-46.36c0-11.57,2.31-21.63,6.93-30.17,4.62-8.54,11.12-15.14,19.48-19.79,8.36-4.66,18.08-6.99,29.16-6.99,7.69,0,15,1.29,21.91,3.86,6.92,2.58,13.05,6.69,18.41,12.33l-18.41,17.89c-2.68-3.17-5.95-5.68-9.79-7.51-3.85-1.83-7.88-2.75-12.12-2.75-5.93,0-11.12,1.39-15.56,4.18-4.44,2.79-7.88,6.44-10.32,10.95-2.44,4.51-3.65,9.35-3.65,14.5v25.3l-4.66-5.08c4.37-5.08,9.63-9.05,15.77-11.91,6.14-2.86,12.56-4.29,19.27-4.29,9.6,0,18.06,2.17,25.4,6.51,7.34,4.34,13.13,10.27,17.36,17.78,4.23,7.51,6.35,16.07,6.35,25.67s-2.42,18.16-7.25,25.88c-4.83,7.73-11.24,13.87-19.22,18.42-7.98,4.55-16.76,6.82-26.35,6.82ZM602.73,1429.69c4.94,0,9.45-1.18,13.54-3.54,4.1-2.36,7.36-5.57,9.79-9.63,2.44-4.06,3.65-8.56,3.65-13.5s-1.2-9.45-3.6-13.55c-2.4-4.09-5.63-7.35-9.69-9.79-4.06-2.44-8.55-3.66-13.5-3.66s-9.45,1.22-13.54,3.66c-4.1,2.43-7.34,5.7-9.74,9.79-2.4,4.1-3.6,8.61-3.6,13.55s1.18,9.23,3.54,13.29c2.36,4.06,5.57,7.3,9.63,9.74,4.05,2.43,8.55,3.65,13.5,3.65Z"/>
        </g>
        <g>
          <g>
            <path class="cls-3" d="M77.62,646.46c54.22-31.26,138.13-53.14,193.58-93.99.8-3.01,2.01-10.04,2.31-11.7-58.31,39.31-146.24,66.28-200.66,96.05,1.92,4.18,2.87,6.16,4.77,9.65Z"/>
            <path class="cls-3" d="M68.05,625.81c55.12-28.27,146.21-54.41,206.71-93.38.49-3.4.76-7.44,1.07-10.75-62.37,39.07-155.71,65.1-212.59,92.53,1.93,4.65,2.89,7.02,4.82,11.59Z"/>
            <path class="cls-3" d="M276.09,501.09c-66.33,41.12-152.72,60.62-222.46,91.32,1.91,3.87,2.87,6.01,4.79,10.42,57.74-26.29,154.1-50.53,217.86-90.14.2-4.97.02-6.84-.18-11.61Z"/>
            <path class="cls-3" d="M273.82,480.84c-67.51,43.32-158.05,62.13-229.73,93.35,1.92,3.74,2.88,5.6,4.79,9.19,70.79-30.75,159.35-49.79,226.48-91.76-.36-3.65-.95-7.23-1.53-10.78Z"/>
            <path class="cls-3" d="M268.28,459.12c-67.06,45.61-162.81,63.3-233.82,96.1,1.92,3.79,2.89,5.7,4.82,9.51,71.75-34.42,164.89-49.82,232.28-94.29-.9-3.87-2.12-7.58-3.28-11.32Z"/>
            <path class="cls-3" d="M260.79,440.7c-66.18,46.83-166.17,63.54-235.9,96.2,1.9,3.48,2.85,5.29,4.77,8.97,70.37-33.07,168.14-50.44,234.84-96.75-1.08-2.86-2.49-5.62-3.71-8.42Z"/>
          </g>
          <g>
            <path class="cls-3" d="M970.44,493.31c-79.33-48.72-175.92,17.61-236.37,70.79-77.46,70.52-122.47,161.23-231.8,195.05,6.86-.15,9.77-.45,13.55-1.47,95.2-12.6,147.51-110.69,213.4-172.38,61.68-56.89,165.95-133.39,245.89-73.45-1.07-7.92-2.06-11.61-4.67-18.54Z"/>
            <path class="cls-3" d="M605.96,570.32c64.55-68.1,132.04-163.03,235.08-161.29-182.48-15.25-232.41,238.4-410.31,265.18-.48,2.52-.96,5.98-1.12,8.47,80.33-15.8,122.52-55.38,176.35-112.36Z"/>
            <path class="cls-3" d="M615.1,586.69c70.33-72.78,153.24-183.96,264.47-169.2-7.32-2.44-11.11-3.51-18.84-5.22-176.13-9.15-242.74,246.59-431.69,280.98-.09,4.05-.26,8.33-.16,12.51,81.64-20.64,130.62-61.13,186.22-119.07Z"/>
            <path class="cls-3" d="M626.64,600.57c73.19-75.01,173.24-200.63,286.73-167.92-6.11-3.54-9.36-5.21-16.14-8.26-113.18-23.2-204.63,95.16-276.66,169.52-56.55,58.78-106.1,99.79-191.16,123.77.47,3.93.45,6.72,1.02,10.27,86.9-27.12,138.53-68.31,196.2-127.37Z"/>
            <path class="cls-3" d="M644.29,611.82c70.32-75.78,184.44-203.6,295.52-160.42-5.02-4.34-7.62-6.31-12.72-9.92-113.13-39.04-218.27,89.44-292.18,164.7-59.38,60.46-112.84,103.63-203.17,132.36.52,3.68,1.24,7.77,1.9,11.56-.54-.1,1.37.49,2.53.49,96.37-28.65,148.5-75.66,208.11-138.78Z"/>
            <path class="cls-3" d="M663.77,622.21c63.4-75.4,193.53-198.68,298.63-145.05-3.77-6-5.94-8.77-10.51-13.91-13.29-6.1-27.54-9.68-42.11-10.33-78.7-2.85-159.3,62.89-212.83,117.75-73.22,77.24-123.48,149.92-237.46,184.94,9.46,1.57,14.26,2.14,23.02,2.85,85.65-27.87,128.78-76.99,181.27-136.24Z"/>
          </g>
          <g>
            <path class="cls-2" d="M472.66,348.74c-64.22,96.39-133.08,195.82-138.54,311.26.43,5.28,1.1,7.84,3.01,12.77,5.93-116.08,76.88-216.52,141.07-314.41-1.79-3.24-3.64-6.44-5.53-9.62Z"/>
            <path class="cls-2" d="M483.18,367.8c-63.73,98.61-135.36,200.44-139.92,316.78,2.93,4.51,4.63,6.65,8.14,10.67,1.93-116.45,74.25-217.54,137.18-316.3-1.71-3.78-3.54-7.45-5.4-11.15Z"/>
            <path class="cls-2" d="M369.52,680.77c7.25-104.43,74.18-191.01,128.39-279.11-1.2-3.44-2.67-7.04-3.99-10.42-60.91,97.34-135.24,195.52-133.49,313.35,3.63,3.46,5.46,5.04,8.77,7.87-.36-10.57-.35-21.18.32-31.7Z"/>
            <path class="cls-2" d="M501.77,412.84c-57.24,93.8-126.34,190.15-124.32,306.5,3.59,2.9,5.53,4.43,9.61,7.43-5.67-113.9,60.4-210.84,118.16-302.38-1.12-4.51-2.13-7.13-3.45-11.55Z"/>
            <path class="cls-2" d="M409.17,685.55c8.59-87.26,54.45-163.1,101.77-236.49-.68-4.5-1.64-7.63-2.52-12.05-57.1,89.33-120.18,186.19-110.67,297.13,4.45,2.85,6.77,4.23,11.48,6.7-1.62-18.42-1.87-36.96-.07-55.29Z"/>
            <path class="cls-2" d="M430.44,727.94c-5.45-43.12,3.66-87.87,19.86-129.91,22.18-57.54,54.42-106.72,64.35-122.98-.18-1.79-1.63-12.93-1.84-14.71-53.82,88.58-106.88,180.43-91.56,285.89,4.81,1.82,6.57,2.54,12.4,3.87-1.27-7.3-2.29-14.94-3.2-22.17Z"/>
          </g>
          <g>
            <path class="cls-3" d="M522.28,443.43c-34.52-177.66-217.68-284.02-386.85-311.14-4,3.95-5.89,6.02-9.42,10.33,178.3,22.8,369.97,142.57,388.64,332.44,4.09-7.58,6.08-11.27,9.88-18.47-.69-4.4-1.41-8.81-2.25-13.16Z"/>
            <path class="cls-3" d="M541.07,420.7c-43.37-172.65-217.29-272.95-383.87-306.35-4.65,3.22-6.93,4.93-11.3,8.51,169.23,30.83,352.9,136.83,387.67,316.22,3.09-6.13,4.98-9.96,8.02-16.52-.16-.63-.35-1.24-.52-1.87Z"/>
            <path class="cls-3" d="M548.37,378.24c-58.74-155.78-204.07-240.84-367.06-278.17-4.93,2.49-7.39,3.83-12.23,6.68,166.39,35.57,331.07,131.62,379.28,300.31,2.43-6,3.51-8.9,5.33-14.48-1.77-4.78-3.5-9.6-5.32-14.34Z"/>
            <path class="cls-3" d="M553.97,344.24c-60.08-145.14-193.61-220.39-350.14-253.62-4.97,1.68-7.31,2.56-11.46,4.3,167.41,36.93,308.88,123.32,365.33,282.78,1.43-6.61,2.01-10.11,2.9-17.14-2.18-5.45-4.37-10.93-6.63-16.31Z"/>
            <path class="cls-3" d="M562.42,326.07c-47.69-138.06-192.75-220.88-331.23-242.73-5.79,1.13-8.67,1.82-14.19,3.3,156.36,32.32,287.55,110.38,345.17,256.31.36-6.98.41-10.43.25-16.88Z"/>
            <path class="cls-3" d="M561.37,311.09c-34.5-131.11-173.36-213.77-301.47-230.82-5.51,0-8.4.18-14.18.82,131.4,20.26,269.03,99.38,315.65,230Z"/>
          </g>
          <g>
            <path class="cls-3" d="M592.54,482.45c26.42-64.53,66.26-111.7,129.66-123.54-3.04-2.33-6.04-4.7-8.96-7.16-60.83,13.44-106.52,64.04-127.85,130.29.3,6.14.54,9.14,1.17,15.05,1.94-4.9,3.94-9.84,5.98-14.64Z"/>
            <path class="cls-3" d="M599.58,500.8c24.04-69.8,66.05-119.08,144.15-127.1-3.78-2.37-7.52-4.82-11.2-7.37-77.79,9.66-120.75,72.66-144,145.3.95,5.74,1.5,8.57,2.76,14.2,2.59-8.4,5.32-16.83,8.29-25.03Z"/>
            <path class="cls-3" d="M679.41,315.19c-1.49-2.15-2.94-4.34-4.32-6.57-39.62,13.81-71.96,40.37-86.17,88.39-.83,5.53-1.18,8.15-1.78,13.32,17.6-51.16,51.06-80.13,92.27-95.14Z"/>
            <path class="cls-3" d="M691.29,330.37c-2.18-2.49-4.29-5.04-6.33-7.64-43.83,15.4-79.15,45.95-99.05,100.38-.39,5.1-.53,7.65-.73,12.98,22.19-57.93,59.29-90.16,106.11-105.72Z"/>
            <path class="cls-3" d="M588.87,456c26.3-61.71,64.24-96.54,116.39-111.29-2.43-2.26-4.81-4.57-7.13-6.94-50.39,15.58-88.88,50.02-113.26,112.24-.04,5.85-.02,8.93.07,15.6,1.3-3.2,2.58-6.48,3.92-9.61Z"/>
            <path class="cls-3" d="M752.88,379.21c-93.31,5.14-137.68,81.04-158.07,160.65,1.55,5.6,2.41,8.39,4.25,14.01,20.26-84.19,62.69-165.43,165.56-168.14-3.93-2.08-7.84-4.26-11.74-6.51Z"/>
          </g>
          <g>
            <path class="cls-2" d="M759.59,372.24c-31.06-18.5-60.07-43.11-81.63-72.55-.9,1.49-3.24,5.37-4.11,6.91,21.1,35.05,55.12,60.17,90.77,79.12,1.96-2.97,2.97-4.54,5.04-7.76-3.32-1.83-6.64-3.72-10.06-5.73Z"/>
            <path class="cls-2" d="M767.48,353.97c-30.46-17.93-56.96-41.61-78.82-69.32-2.48,3.14-3.58,4.13-5.88,7.52,25.03,31.57,57.17,58.16,92.16,77.56,2.14-3.36,3.23-5.07,5.41-8.46-4.35-2.38-8.69-4.8-12.86-7.29Z"/>
            <path class="cls-2" d="M775.82,336.19c-29.09-16.89-54.06-39.16-74.25-66.08-2.24,2.24-4.42,4.57-6.56,6.96,24.15,31.9,55.2,57.45,90.76,75.76,2.17-3.33,3.25-4.97,5.36-8.13-5.24-2.77-10.42-5.61-15.31-8.51Z"/>
            <path class="cls-2" d="M783.59,318.44c-27.68-14.22-51.99-34.14-70.37-59.08-2.11,1.76-4.16,3.61-6.19,5.47,23.38,31.25,54.82,54.39,89.6,71.79,2.36-3.45,3.6-5.28,6.11-8.97-6.63-2.95-13.13-6.03-19.16-9.21Z"/>
            <path class="cls-2" d="M799.58,302.58c-28.22-12.54-52.88-32.12-70-55.49-2.91,1.96-5.77,3.98-8.57,6.09,21.45,29.88,53.41,51.82,88.08,65.15,2.54-3.74,3.82-5.62,6.28-9.24-5.37-2.07-10.77-4.21-15.79-6.51Z"/>
            <path class="cls-2" d="M745.76,237.17c-2.54,1.42-5.04,2.88-7.52,4.39,19.26,26.03,47.87,46.72,83.05,58.82,2.26-3.32,3.33-4.9,5.27-7.74-35.73-11.18-61.56-30.44-80.8-55.46Z"/>
          </g>
          <g>
            <path class="cls-3" d="M664.86,251.02c74.27-75.38,178.47-95.55,276.37-132.89-1.92-3.74-2.88-5.59-4.79-9.19-98.77,35-200.08,58.63-275.54,131.98-.24,5.28-.18,8.13.21,13.89,1.24-1.29,2.5-2.52,3.75-3.79Z"/>
            <path class="cls-3" d="M677.16,269.31c69.96-79.17,180.44-87.83,273.71-132.2-1.93-3.79-2.89-5.7-4.82-9.51-98.91,43.04-212.66,56.04-283.29,141.78.91,5.82,1.5,8.72,2.83,14.18,3.71-4.85,7.55-9.71,11.56-14.25Z"/>
            <path class="cls-3" d="M912.47,55.51c-1.92-4.18-2.87-6.16-4.77-9.65-64.02,34.85-162.25,57.93-213.15,112.69-4.18,4.14-6.12,6.58-9.68,11.83,53.31-56.71,159.98-80.14,227.6-114.88Z"/>
            <path class="cls-3" d="M676.64,194.19c70.85-57.99,161.82-80.59,245.46-116.09-1.93-4.65-2.89-7.02-4.82-11.59-80.97,37.97-170.15,61.72-240.5,117.91-2.92,5.9-4.22,9-6.48,15.11,2.09-1.82,4.22-3.58,6.35-5.34Z"/>
            <path class="cls-3" d="M670.24,221.35c74.24-64.92,167.88-88.53,261.45-121.43-1.91-3.87-2.87-6.01-4.79-10.42-92.21,35.06-187.98,58.65-261.44,125.08-1.59,5.86-2.22,8.7-3.13,13.86,2.62-2.4,5.26-4.74,7.9-7.09Z"/>
            <path class="cls-3" d="M955.67,146.45c-97.15,49.62-223.18,52.72-286.29,149.86,1.67,4.68,2.58,6.81,4.48,10.29,58.21-102.46,191.23-99.36,286.58-151.18-1.9-3.48-2.85-5.29-4.77-8.97Z"/>
          </g>
          <g>
            <path class="cls-2" d="M85.02,221.88c68.76,112.78,224.13,168.14,198.75,319.88-5.11,4.8-7.68,7.02-12.58,10.71,35.23-155.97-121.51-203.93-186.7-318.03-.24-3.22-.02-8.48.53-12.56Z"/>
            <path class="cls-2" d="M91.2,198.8c71.46,118.62,224.54,169.02,217.63,315.95-4.73,5.71-7.23,8.6-12.29,14.08,16.18-150.22-138.63-206.19-209.25-317.93,1.25-4.66,2.05-7.13,3.91-12.1Z"/>
            <path class="cls-2" d="M102.99,174.04c40.61,66.29,88.85,108.54,143.77,159.1,45.66,42.04,81.35,96.18,82.54,154.43-3.28,4.86-5.19,7.55-9.33,13.05-2.63-66.67-32.48-119.43-85.62-166.64-48.31-42.92-103.59-93.54-137.84-147.71,2.37-5,3.69-7.49,6.48-12.24Z"/>
            <path class="cls-2" d="M118.45,151.79c37.04,71.89,81.58,112.81,138.88,165.75,43.26,39.97,81.13,83.92,85.57,144.57-2.61,6.28-3.99,9.21-6.61,14.11-2.52-62.55-40.2-110.83-84.68-152.32-55.82-52.07-101.76-92.35-141.26-161.21,3.09-4.42,4.71-6.63,8.09-10.9Z"/>
            <path class="cls-2" d="M264.24,311.09c41.6,37.56,78.27,76.36,84.82,134.22,2.26-7.05,3.28-10.74,4.85-17.95-7.09-54-44.58-86.69-83.24-120.43-58.91-51.41-100.63-91.63-130.57-162.3-4.67-.73-9.34-1.41-14-2,33.46,74.62,79.22,115.28,138.13,168.47Z"/>
            <path class="cls-2" d="M126,142.42s.04.08.06.13c.65-.8,1.22-1.47,1.79-2.14-.58.63-1.16,1.26-1.84,2.02Z"/>
            <path class="cls-2" d="M278.94,302.59c35.73,30.56,69.96,57.33,77.69,107.21.55-6.74.55-9.97-.26-15.64-6.57-45.37-39.24-70.7-71.58-98.08-56.59-47.91-95.59-83.7-118.42-146.67-3.78-.78-7.55-1.52-11.33-2.22,26.16,66.19,66.54,106.35,123.9,155.4Z"/>
            <path class="cls-2" d="M126,142.62s.07,0,.1.01c-.01-.03-.03-.05-.04-.08-.02.03-.04.04-.06.07Z"/>
          </g>
          <g>
            <path class="cls-2" d="M648.74,509.61c2.17-2.38,4.3-4.71,6.48-7.05-10.05-7.45-20.11-15.53-29.71-24.03-1.51,3-2.95,6.06-4.35,9.14,8.91,7.76,18.28,15.08,27.59,21.94Z"/>
            <path class="cls-2" d="M763.93,555.46c-3.32,2.64-6.6,5.29-9.78,7.94,57.3,14.75,109.43-1.92,137.21-72-3.52.5-7.05,1.11-10.57,1.87-25.07,56.63-68.35,71.71-116.85,62.18Z"/>
            <path class="cls-2" d="M748.21,568.42c-2.88,2.46-5.68,4.9-8.43,7.34,72.09,21.64,138.86,4.01,171.19-85.71-3.24-.04-6.48.09-9.74.31-29.99,79.7-88.84,96.06-153.03,78.06Z"/>
            <path class="cls-2" d="M616.83,497.64c-1.17,2.8-2.62,6.64-3.71,9.49,7.52,6.19,14.55,11.65,22.32,17.3,2-2.24,4.76-5.36,6.76-7.58-8.67-6.13-17.02-12.28-25.37-19.22Z"/>
            <path class="cls-2" d="M627.7,533.35c-6.67-4.83-12.14-9.54-18.65-14.7-1.32,3.85-2.52,7.9-3.72,11.8,5.33,4.01,9.54,7.46,14.97,11.26,2.47-2.79,4.94-5.58,7.4-8.36Z"/>
            <path class="cls-2" d="M731.5,583.22c-.76.69-1.54,1.39-2.28,2.08-1.88,1.76-3.74,3.55-5.6,5.37,86.64,26.95,169.13,6.68,205.05-99.04-2.84-.49-5.7-.87-8.56-1.13-34.37,97.77-109.12,116.98-188.61,92.72Z"/>
            <path class="cls-2" d="M716.28,598.02c-2.77,2.84-5.52,5.74-8.25,8.67,99.86,31.97,200.27,6.9,238.29-110.4-3.02-1.08-6.06-2.04-9.13-2.83-37.06,111.84-127.41,133.74-220.91,104.55Z"/>
            <path class="cls-2" d="M602.04,542.04c-.95,3.45-2.11,8.36-2.98,11.83,2.64,2,3.68,2.19,6.37,4.13,2.29-2.56,5.31-5.7,7.59-8.27-4.08-2.81-6.98-4.77-10.97-7.69Z"/>
            <path class="cls-2" d="M701.16,614.17c-2.68,2.95-5.35,5.93-8.01,8.94,109.77,42.35,232.54,11.11,269.85-119.12-2.63-1.49-5.27-2.86-7.94-4.1-38.5,126.06-148.17,150.72-253.9,114.27Z"/>
            <path class="cls-2" d="M969.85,508.22c-34.95,128.35-173.78,175.4-285.13,124.51-2.14,2.46-4.28,4.93-6.43,7.41,111.25,59.48,268.62,1.81,296.81-128.29-1.28-1.75-3.5-2.46-5.26-3.63Z"/>
          </g>
        </g>
      </g>
    </g>
  </g>
</svg>